# xmcd
#
# Track frame offsets:
#	150
#	12205
#	27660
#	36425
#	47235
#	60062
#	73120
#	89877
#	109922
#
# Disc length: 1618 seconds
#
# Revision: 0
# Processed by: cddbd v1.5.2PL0 Copyright (c) Steve Scherf et al.
# Submitted via: EasyCDDAExtractor 8.2.1.1
#
DISCID=7d065009
DTITLE=David Champa - Wie Niet Voelen Wil, Moet Maar Horen
DYEAR=1900
DGENRE=
TTITLE0=Zand
TTITLE1=Het Water Tot Daar
TTITLE2=Ik Ben De Man
TTITLE3=Wat Niet Weet, Wat Niet Deert
TTITLE4=Nooit Meer Terug
TTITLE5=Licht Uit Aan Het Eind Van De Tunnel
TTITLE6=De Collectie
TTITLE7=Bestemming Blues
TTITLE8=Wat Niet Weet, Wat Niet Deert (Live)
EXTD=
EXTT0=
EXTT1=
EXTT2=
EXTT3=
EXTT4=
EXTT5=
EXTT6=
EXTT7=
EXTT8=
PLAYORDER=
